<?xml version="1.0" encoding="utf-8"?>
<!-- Generator: Adobe Illustrator 24.1.2, SVG Export Plug-In . SVG Version: 6.00 Build 0)  -->
<svg version="1.1" id="Layer_2_1_" xmlns="http://www.w3.org/2000/svg" xmlns:xlink="http://www.w3.org/1999/xlink" x="0px" y="0px"
	 viewBox="0 0 612 792" style="enable-background:new 0 0 612 792;" xml:space="preserve">
<style type="text/css">
	.st0{fill:#D6D009;}
	.st1{fill:#F4CF58;}
	.st2{fill:#402D89;}
	.st3{fill:#ED8A32;}
	.st4{fill:#1BEADF;}
	.st5{fill:#F45506;}
	.st6{fill:#4578DD;}
	.st7{fill:#D34607;}
	.st8{fill:#0B909E;}
	.st9{fill:#D1D1D1;}
	.st10{fill:#8B8C8E;}
	.st11{fill:#001982;}
	.st12{fill:#A0A0A0;}
	.st13{fill:none;stroke:#000000;stroke-width:0.25;stroke-miterlimit:10;}
</style>
<g id="XMLID_1_">
	<g>
		<polygon class="st0" points="370.75,331.92 393.65,371.52 347.95,371.52 347.81,371.28 		"/>
		<polygon class="st1" points="393.65,371.52 347.67,452.05 324.95,411.88 336.16,391.97 347.67,371.9 347.46,371.9 347.67,371.52 
			347.95,371.52 		"/>
		<polygon class="st2" points="347.67,292.61 370.75,331.92 325.24,331.92 		"/>
		<polygon class="st3" points="370.75,331.92 347.81,371.28 325.24,331.92 		"/>
		<polygon class="st0" points="347.81,371.28 347.95,371.52 347.67,371.52 		"/>
		<polygon class="st3" points="325.24,331.92 347.81,371.28 347.67,371.52 325.09,332.17 		"/>
		<polygon class="st2" points="347.67,292.61 325.24,331.92 324.95,331.92 		"/>
		<polygon class="st4" points="347.67,292.61 324.95,331.92 278.59,331.92 301.68,292.61 		"/>
		<polygon class="st5" points="325.09,332.17 347.67,371.52 301.96,371.52 		"/>
		<polygon class="st5" points="347.67,371.52 347.46,371.9 301.9,371.9 301.68,371.52 324.95,331.92 325.09,332.17 301.96,371.52 		
			"/>
		<polygon class="st5" points="347.67,371.9 336.16,391.97 347.46,371.9 		"/>
		<polygon class="st6" points="324.95,411.88 347.67,452.05 256.07,452.05 278.59,411.88 		"/>
		<polygon class="st7" points="347.46,371.9 336.16,391.97 324.95,411.51 313.47,391.97 301.9,371.9 		"/>
		<polygon class="st5" points="324.95,411.51 336.16,391.97 324.95,411.88 313.47,391.97 		"/>
		<polygon class="st3" points="325.24,331.92 325.09,332.17 324.95,331.92 		"/>
		<polygon class="st4" points="324.95,331.92 301.68,371.52 256.07,371.52 278.59,331.92 		"/>
		<polygon class="st8" points="313.47,391.97 324.95,411.88 278.59,411.88 256.07,371.52 301.68,371.52 301.9,371.9 301.68,371.9 		
			"/>
		<polygon class="st5" points="301.9,371.9 313.47,391.97 301.68,371.9 		"/>
		<polygon class="st9" points="301.68,292.61 278.59,331.92 232.98,331.92 256.07,292.61 		"/>
		<polygon class="st10" points="278.59,331.92 256.07,371.52 232.98,331.92 		"/>
		<polygon class="st11" points="256.07,371.52 278.59,411.88 232.98,411.88 		"/>
		<polygon class="st12" points="278.59,411.88 256.07,452.05 232.98,411.88 		"/>
	</g>
	<g>
		<polyline class="st13" points="232.98,331.92 256.07,292.61 301.68,292.61 		"/>
		<polyline class="st13" points="278.59,331.92 301.68,292.61 347.67,292.61 324.95,331.92 		"/>
		<polyline class="st13" points="278.59,331.92 324.95,331.92 301.68,371.52 		"/>
		<polyline class="st13" points="256.07,371.52 301.68,371.52 301.9,371.9 313.47,391.97 324.95,411.88 		"/>
		<polyline class="st13" points="347.67,371.52 325.09,332.17 324.95,331.92 325.24,331.92 370.75,331.92 		"/>
		<line class="st13" x1="347.67" y1="292.61" x2="370.75" y2="331.92"/>
		<polyline class="st13" points="347.67,371.52 347.81,371.28 370.75,331.92 393.65,371.52 		"/>
		<polyline class="st13" points="324.95,411.88 336.16,391.97 347.46,371.9 347.67,371.52 347.95,371.52 393.65,371.52 
			347.67,452.05 		"/>
		<polyline class="st13" points="278.59,411.88 324.95,411.88 347.67,452.05 256.07,452.05 		"/>
		<polyline class="st13" points="232.98,411.88 256.07,452.05 278.59,411.88 		"/>
		<polygon class="st13" points="256.07,371.52 232.98,411.88 278.59,411.88 		"/>
		<polygon class="st13" points="232.98,331.92 278.59,331.92 256.07,371.52 		"/>
	</g>
</g>
<line class="st13" x1="301.68" y1="371.53" x2="347.67" y2="371.53"/>
</svg>
