<?xml version="1.0" encoding="utf-8"?>
<!-- Generator: Adobe Illustrator 24.1.2, SVG Export Plug-In . SVG Version: 6.00 Build 0)  -->
<svg version="1.1" id="Layer_2_1_" xmlns="http://www.w3.org/2000/svg" xmlns:xlink="http://www.w3.org/1999/xlink" x="0px" y="0px"
	 viewBox="0 0 612 792" style="enable-background:new 0 0 612 792;" xml:space="preserve">
<style type="text/css">
	.st0{fill:#D6D009;}
	.st1{fill:#F4CF58;}
	.st2{fill:#402D89;}
	.st3{fill:#ED8A32;}
	.st4{fill:#1BEADF;}
	.st5{fill:#F45506;}
	.st6{fill:#4578DD;}
	.st7{fill:#D34607;}
	.st8{fill:#0B909E;}
	.st9{fill:#D1D1D1;}
	.st10{fill:#8B8C8E;}
	.st11{fill:#001982;}
	.st12{fill:#A0A0A0;}
	.st13{fill:none;stroke:#000000;stroke-width:0.25;stroke-miterlimit:10;}
	.st14{fill:none;}
	.st15{fill:none;stroke:#000000;stroke-miterlimit:10;}
	.st16{font-family:'Rig-MediumOutline';}
	.st17{font-size:72px;}
</style>
<g>
	<g>
		<g>
			<g id="XMLID_1_">
				<g>
					<polygon class="st0" points="168.03,332.35 190.93,371.95 145.23,371.95 145.09,371.71 					"/>
					<polygon class="st1" points="190.93,371.95 144.95,452.48 122.23,412.31 133.44,392.4 144.95,372.33 144.74,372.33 
						144.95,371.95 145.23,371.95 					"/>
					<polygon class="st2" points="144.95,293.04 168.03,332.35 122.52,332.35 					"/>
					<polygon class="st3" points="168.03,332.35 145.09,371.71 122.52,332.35 					"/>
					<polygon class="st0" points="145.09,371.71 145.23,371.95 144.95,371.95 					"/>
					<polygon class="st3" points="122.52,332.35 145.09,371.71 144.95,371.95 122.37,332.6 					"/>
					<polygon class="st2" points="144.95,293.04 122.52,332.35 122.23,332.35 					"/>
					<polygon class="st4" points="144.95,293.04 122.23,332.35 75.87,332.35 98.96,293.04 					"/>
					<polygon class="st5" points="122.37,332.6 144.95,371.95 99.24,371.95 					"/>
					<polygon class="st5" points="144.95,371.95 144.74,372.33 99.18,372.33 98.96,371.95 122.23,332.35 122.37,332.6 99.24,371.95 
											"/>
					<polygon class="st5" points="144.95,372.33 133.44,392.4 144.74,372.33 					"/>
					<polygon class="st6" points="122.23,412.31 144.95,452.48 53.35,452.48 75.87,412.31 					"/>
					<polygon class="st7" points="144.74,372.33 133.44,392.4 122.23,411.94 110.75,392.4 99.18,372.33 					"/>
					<polygon class="st5" points="122.23,411.94 133.44,392.4 122.23,412.31 110.75,392.4 					"/>
					<polygon class="st3" points="122.52,332.35 122.37,332.6 122.23,332.35 					"/>
					<polygon class="st4" points="122.23,332.35 98.96,371.95 53.35,371.95 75.87,332.35 					"/>
					<polygon class="st8" points="110.75,392.4 122.23,412.31 75.87,412.31 53.35,371.95 98.96,371.95 99.18,372.33 98.96,372.33 
											"/>
					<polygon class="st5" points="99.18,372.33 110.75,392.4 98.96,372.33 					"/>
					<polygon class="st9" points="98.96,293.04 75.87,332.35 30.26,332.35 53.35,293.04 					"/>
					<polygon class="st10" points="75.87,332.35 53.35,371.95 30.26,332.35 					"/>
					<polygon class="st11" points="53.35,371.95 75.87,412.31 30.26,412.31 					"/>
					<polygon class="st12" points="75.87,412.31 53.35,452.48 30.26,412.31 					"/>
				</g>
				<g>
					<polyline class="st13" points="30.26,332.35 53.35,293.04 98.96,293.04 					"/>
					<polyline class="st13" points="75.87,332.35 98.96,293.04 144.95,293.04 122.23,332.35 					"/>
					<polyline class="st13" points="75.87,332.35 122.23,332.35 98.96,371.95 					"/>
					<polyline class="st13" points="53.35,371.95 98.96,371.95 99.18,372.33 110.75,392.4 122.23,412.31 					"/>
					<polyline class="st13" points="144.95,371.95 122.37,332.6 122.23,332.35 122.52,332.35 168.03,332.35 					"/>
					<line class="st13" x1="144.95" y1="293.04" x2="168.03" y2="332.35"/>
					<polyline class="st13" points="144.95,371.95 145.09,371.71 168.03,332.35 190.93,371.95 					"/>
					<polyline class="st13" points="122.23,412.31 133.44,392.4 144.74,372.33 144.95,371.95 145.23,371.95 190.93,371.95 
						144.95,452.48 					"/>
					<polyline class="st13" points="75.87,412.31 122.23,412.31 144.95,452.48 53.35,452.48 					"/>
					<polyline class="st13" points="30.26,412.31 53.35,452.48 75.87,412.31 					"/>
					<polygon class="st13" points="53.35,371.95 30.26,412.31 75.87,412.31 					"/>
					<polygon class="st13" points="30.26,332.35 75.87,332.35 53.35,371.95 					"/>
				</g>
			</g>
		</g>
		<line class="st13" x1="98.96" y1="371.96" x2="144.95" y2="371.96"/>
	</g>
	<rect x="198.42" y="357.58" class="st14" width="361.52" height="69.12"/>
	<text transform="matrix(1 0 0 1 213.4233 403.438)" class="st15 st16 st17">HOBBYIST</text>
</g>
</svg>
